<?xml version="1.0" encoding="UTF-8" standalone="no"?>
<svg
   xmlns:dc="http://purl.org/dc/elements/1.1/"
   xmlns:cc="http://creativecommons.org/ns#"
   xmlns:rdf="http://www.w3.org/1999/02/22-rdf-syntax-ns#"
   xmlns:svg="http://www.w3.org/2000/svg"
   xmlns="http://www.w3.org/2000/svg"
   xmlns:sodipodi="http://sodipodi.sourceforge.net/DTD/sodipodi-0.dtd"
   xmlns:inkscape="http://www.inkscape.org/namespaces/inkscape"
   viewBox="0 0 512 512"
   id="svg2"
   version="1.1"
   inkscape:version="0.91 r13725"
   width="100%"
   height="100%"
   sodipodi:docname="dwarf-king.svg">
  <metadata
     id="metadata12">
    <rdf:RDF>
      <cc:Work
         rdf:about="">
        <dc:format>image/svg+xml</dc:format>
        <dc:type
           rdf:resource="http://purl.org/dc/dcmitype/StillImage" />
        <dc:title></dc:title>
      </cc:Work>
    </rdf:RDF>
  </metadata>
  <defs
     id="defs10">
    <inkscape:path-effect
       effect="skeletal"
       id="path-effect3789"
       is_visible="true"
       pattern="M 0,5 C 0,2.24 2.24,0 5,0 7.76,0 10,2.24 10,5 10,7.76 7.76,10 5,10 2.24,10 0,7.76 0,5 z"
       copytype="single_stretched"
       prop_scale="1"
       scale_y_rel="false"
       spacing="0"
       normal_offset="0"
       tang_offset="0"
       prop_units="false"
       vertical_pattern="false"
       fuse_tolerance="0" />
  </defs>
  <sodipodi:namedview
     pagecolor="#ffffff"
     bordercolor="#666666"
     borderopacity="1"
     objecttolerance="10"
     gridtolerance="10"
     guidetolerance="10"
     inkscape:pageopacity="0"
     inkscape:pageshadow="2"
     inkscape:window-width="1615"
     inkscape:window-height="1026"
     id="namedview8"
     showgrid="false"
     inkscape:zoom="0.25"
     inkscape:cx="164.58243"
     inkscape:cy="1233.0853"
     inkscape:window-x="65"
     inkscape:window-y="24"
     inkscape:window-maximized="1"
     inkscape:current-layer="g5266" />
  <path
     d="M 4.9999999e-6,-9.0799999e-6 512,-9.0799999e-6 512,512 4.9999999e-6,512 Z"
     id="path4"
     inkscape:connector-curvature="0"
     style="fill:#000000;stroke:#ffffff;stroke-width:0" />
  <g
     id="g3945"
     transform="translate(1,-24)">
    <g
       id="g4063">
      <g
         id="g5212">
        <g
           id="g5266"
           transform="translate(0,96)">
          <path
             style="fill:#ffffff;fill-opacity:1;stroke:none"
             d="m 225,72 c -31.22148,0 -79.84766,25 -79.84766,25 L 145,200 l 42.5918,0 -3.74219,-4.21094 L 225,172.64258 225,72 Z"
             id="path2989"
             transform="translate(-1,24)"
             inkscape:connector-curvature="0" />
          <path
             sodipodi:nodetypes="cccccccccccccccc"
             inkscape:connector-curvature="0"
             id="rect3762"
             d="m 81,216 0,32 47,0 -31,-32 z m 39,0 32,32 32,0 -32,-32 z m 55,0 32,32 18,0 0,-8 -24,-24 z"
             style="fill:#ffffff;fill-opacity:1;stroke:none"
             transform="translate(-1,24)" />
          <path
             sodipodi:nodetypes="cccccccccccccccc"
             inkscape:connector-curvature="0"
             id="rect3762-9"
             d="m 430,240 0,32 -47,0 31,-32 z m -39,0 -32,32 -32,0 32,-32 z m -55,0 -32,32 -18,0 0,-8 24,-24 z"
             style="fill:#ffffff;fill-opacity:1;stroke:none" />
          <path
             style="fill:#ffffff;fill-opacity:1;stroke:none"
             d="m 128,224 -32,0 0,-160 16,-8 16,8 z"
             id="rect3784-5"
             inkscape:connector-curvature="0"
             sodipodi:nodetypes="cccccc" />
          <path
             style="fill:#ffffff;fill-opacity:1;stroke:none"
             d="m 256,32 -15,8 0,126 32,0 0,-126 z"
             id="rect3784"
             inkscape:connector-curvature="0"
             sodipodi:nodetypes="cccccc"
             transform="translate(-1,24)" />
          <path
             style="fill:#ffffff;fill-opacity:1;stroke:none"
             d="m 287,72 0,99.74023 40.25195,24.15039 L 323.82812,200 367,200 366.84766,97 c 0,0 -48.62618,-25 -79.84766,-25 z"
             id="path2989-6"
             transform="translate(-1,24)"
             inkscape:connector-curvature="0" />
          <path
             style="fill:#ffffff;fill-opacity:1;stroke:none"
             d="m 414,224 -32,0 0,-159.999999 16,-8 16,8 z"
             id="rect3784-5-2"
             inkscape:connector-curvature="0"
             sodipodi:nodetypes="cccccc" />
          <path
             style="fill:#ffffff;fill-opacity:1;stroke:none"
             d="m 185,32 -16,8 0,29.044922 c 9.76123,-3.7641 20.69655,-7.597959 32,-10.128906 L 201,40 Z"
             id="rect3784-5-9"
             inkscape:connector-curvature="0"
             sodipodi:nodetypes="cccccc"
             transform="translate(-1,24)" />
          <path
             style="fill:#ffffff;fill-opacity:1;stroke:none"
             d="m 328,56.000078 16,8 0,29.044922 c -9.76123,-3.7641 -20.69655,-7.597959 -32,-10.128906 l 0,-18.916016 z"
             id="rect3784-5-9-7"
             inkscape:connector-curvature="0"
             sodipodi:nodetypes="cccccc" />
          <path
             style="fill:#ffffff;fill-opacity:1;fill-rule:evenodd;stroke:none;stroke-width:0;stroke-linecap:butt;stroke-linejoin:miter;stroke-miterlimit:4;stroke-dasharray:none;stroke-opacity:1"
             d="m 241,182 -32,18 32,36 32,0 30,-36 -30,-18 -32,0 z m 9.34375,6.28711 5.65625,5.65625 5.65625,-5.65625 5.6582,5.65625 -5.6582,5.6582 4.24414,4.24219 5.65625,5.65625 -5.65625,5.65625 -4.24414,4.24219 5.6582,5.6582 -5.6582,5.65625 -5.65625,-5.65625 -5.65625,5.65625 -5.6582,-5.65625 5.6582,-5.6582 -4.24414,-4.24219 -5.65625,-5.65625 5.65625,-5.65625 4.24414,-4.24219 -5.6582,-5.6582 5.6582,-5.65625 z M 256,205.25781 251.75781,209.5 256,213.74219 260.24219,209.5 256,205.25781 Z"
             transform="translate(-1,24)"
             id="path5066"
             inkscape:connector-curvature="0" />
          <path
             style="fill:#ffffff;fill-opacity:1;stroke:none"
             d="m 257,312 15,-8 0,-28 -32,0 0,28 z"
             id="rect3784-6"
             inkscape:connector-curvature="0"
             sodipodi:nodetypes="cccccc" />
          <path
             style="fill:#ffffff;fill-opacity:1;stroke:none"
             d="m 113,312 15,-8 0,-16 -32,0 0,16 z"
             id="rect3784-6-9"
             inkscape:connector-curvature="0"
             sodipodi:nodetypes="cccccc" />
          <path
             style="fill:#ffffff;fill-opacity:1;stroke:none"
             d="m 399,312 15,-8 0,-16 -32,0 0,16 z"
             id="rect3784-6-9-2"
             inkscape:connector-curvature="0"
             sodipodi:nodetypes="cccccc" />
        </g>
      </g>
    </g>
  </g>
</svg>
